<mxfile host="Electron" modified="2024-02-23T16:11:34.410Z" agent="Mozilla/5.0 (Windows NT 10.0; Win64; x64) AppleWebKit/537.36 (KHTML, like Gecko) draw.io/23.1.5 Chrome/120.0.6099.109 Electron/28.1.0 Safari/537.36" etag="53IgwDBavjRv1O8oB747" version="23.1.5" type="device">
  <diagram name="Pagina-1" id="2PzucVVuemy0MzqI2Rzy">
    <mxGraphModel dx="2345" dy="1129" grid="1" gridSize="10" guides="1" tooltips="1" connect="1" arrows="1" fold="1" page="1" pageScale="1" pageWidth="827" pageHeight="1169" math="0" shadow="0">
      <root>
        <mxCell id="0" />
        <mxCell id="1" parent="0" />
        <mxCell id="PmFzKxTWgb2I8v0q9J5C-1" value="Utente non autenticato" style="shape=umlActor;verticalLabelPosition=bottom;verticalAlign=top;html=1;outlineConnect=0;" parent="1" vertex="1">
          <mxGeometry x="142.5" y="570" width="30" height="60" as="geometry" />
        </mxCell>
        <mxCell id="PmFzKxTWgb2I8v0q9J5C-4" value="" style="rounded=0;whiteSpace=wrap;html=1;rotation=90;" parent="1" vertex="1">
          <mxGeometry x="60" y="752.5" width="195" height="10" as="geometry" />
        </mxCell>
        <mxCell id="PmFzKxTWgb2I8v0q9J5C-5" value="" style="rounded=0;whiteSpace=wrap;html=1;rotation=90;" parent="1" vertex="1">
          <mxGeometry x="372.5" y="690" width="67.5" height="10" as="geometry" />
        </mxCell>
        <mxCell id="PmFzKxTWgb2I8v0q9J5C-6" value="" style="endArrow=classic;html=1;rounded=0;" parent="1" edge="1">
          <mxGeometry width="50" height="50" relative="1" as="geometry">
            <mxPoint x="172.5" y="690" as="sourcePoint" />
            <mxPoint x="392.5" y="690" as="targetPoint" />
          </mxGeometry>
        </mxCell>
        <mxCell id="PmFzKxTWgb2I8v0q9J5C-8" value="loginView()" style="text;html=1;align=center;verticalAlign=middle;resizable=0;points=[];autosize=1;strokeColor=none;fillColor=none;" parent="1" vertex="1">
          <mxGeometry x="240" y="660" width="80" height="30" as="geometry" />
        </mxCell>
        <mxCell id="PmFzKxTWgb2I8v0q9J5C-9" value="" style="html=1;verticalAlign=bottom;endArrow=open;dashed=1;endSize=8;curved=0;rounded=0;" parent="1" edge="1">
          <mxGeometry relative="1" as="geometry">
            <mxPoint x="385" y="730" as="sourcePoint" />
            <mxPoint x="175" y="730" as="targetPoint" />
          </mxGeometry>
        </mxCell>
        <mxCell id="PmFzKxTWgb2I8v0q9J5C-10" value="return" style="edgeLabel;html=1;align=center;verticalAlign=middle;resizable=0;points=[];" parent="PmFzKxTWgb2I8v0q9J5C-9" vertex="1" connectable="0">
          <mxGeometry x="-0.0322" y="-2" relative="1" as="geometry">
            <mxPoint x="-3" y="-8" as="offset" />
          </mxGeometry>
        </mxCell>
        <mxCell id="PmFzKxTWgb2I8v0q9J5C-11" value="" style="endArrow=none;dashed=1;html=1;dashPattern=1 3;strokeWidth=2;rounded=0;" parent="1" edge="1">
          <mxGeometry width="50" height="50" relative="1" as="geometry">
            <mxPoint x="405.85" y="630" as="sourcePoint" />
            <mxPoint x="405.85" y="660" as="targetPoint" />
          </mxGeometry>
        </mxCell>
        <mxCell id="PmFzKxTWgb2I8v0q9J5C-12" value="" style="rounded=0;whiteSpace=wrap;html=1;rotation=90;" parent="1" vertex="1">
          <mxGeometry x="628.75" y="690" width="67.5" height="10" as="geometry" />
        </mxCell>
        <mxCell id="PmFzKxTWgb2I8v0q9J5C-13" value="" style="endArrow=none;dashed=1;html=1;dashPattern=1 3;strokeWidth=2;rounded=0;" parent="1" edge="1">
          <mxGeometry width="50" height="50" relative="1" as="geometry">
            <mxPoint x="662.1" y="630" as="sourcePoint" />
            <mxPoint x="662.1" y="660" as="targetPoint" />
          </mxGeometry>
        </mxCell>
        <mxCell id="PmFzKxTWgb2I8v0q9J5C-14" value="" style="rounded=0;whiteSpace=wrap;html=1;" parent="1" vertex="1">
          <mxGeometry x="362.5" y="590" width="103.75" height="30" as="geometry" />
        </mxCell>
        <mxCell id="PmFzKxTWgb2I8v0q9J5C-15" value="AuthenticationView" style="text;html=1;strokeColor=none;fillColor=none;align=center;verticalAlign=middle;whiteSpace=wrap;rounded=0;" parent="1" vertex="1">
          <mxGeometry x="384.38" y="590" width="60" height="30" as="geometry" />
        </mxCell>
        <mxCell id="PmFzKxTWgb2I8v0q9J5C-17" value="" style="rounded=0;whiteSpace=wrap;html=1;" parent="1" vertex="1">
          <mxGeometry x="592.5" y="590" width="140" height="30" as="geometry" />
        </mxCell>
        <mxCell id="PmFzKxTWgb2I8v0q9J5C-18" value="AuthenticationController" style="text;html=1;strokeColor=none;fillColor=none;align=center;verticalAlign=middle;whiteSpace=wrap;rounded=0;" parent="1" vertex="1">
          <mxGeometry x="632.5" y="590" width="60" height="30" as="geometry" />
        </mxCell>
        <mxCell id="PmFzKxTWgb2I8v0q9J5C-20" value="" style="endArrow=classic;html=1;rounded=0;" parent="1" edge="1">
          <mxGeometry width="50" height="50" relative="1" as="geometry">
            <mxPoint x="420" y="689.3299999999999" as="sourcePoint" />
            <mxPoint x="640" y="689.3299999999999" as="targetPoint" />
          </mxGeometry>
        </mxCell>
        <mxCell id="PmFzKxTWgb2I8v0q9J5C-21" value="loginController()" style="text;html=1;align=center;verticalAlign=middle;resizable=0;points=[];autosize=1;strokeColor=none;fillColor=none;" parent="1" vertex="1">
          <mxGeometry x="477.5" y="660" width="110" height="30" as="geometry" />
        </mxCell>
        <mxCell id="PmFzKxTWgb2I8v0q9J5C-22" value="" style="rounded=0;whiteSpace=wrap;html=1;rotation=90;" parent="1" vertex="1">
          <mxGeometry x="821.57" y="757.19" width="201.87" height="10" as="geometry" />
        </mxCell>
        <mxCell id="PmFzKxTWgb2I8v0q9J5C-23" value="" style="endArrow=none;dashed=1;html=1;dashPattern=1 3;strokeWidth=2;rounded=0;" parent="1" edge="1">
          <mxGeometry width="50" height="50" relative="1" as="geometry">
            <mxPoint x="922.1" y="630" as="sourcePoint" />
            <mxPoint x="922.1" y="660" as="targetPoint" />
          </mxGeometry>
        </mxCell>
        <mxCell id="PmFzKxTWgb2I8v0q9J5C-24" value="" style="rounded=0;whiteSpace=wrap;html=1;" parent="1" vertex="1">
          <mxGeometry x="852.5" y="590" width="140" height="30" as="geometry" />
        </mxCell>
        <mxCell id="PmFzKxTWgb2I8v0q9J5C-25" value="AuthenticationModel" style="text;html=1;strokeColor=none;fillColor=none;align=center;verticalAlign=middle;whiteSpace=wrap;rounded=0;" parent="1" vertex="1">
          <mxGeometry x="892.5" y="590" width="60" height="30" as="geometry" />
        </mxCell>
        <mxCell id="PmFzKxTWgb2I8v0q9J5C-28" value="" style="endArrow=classic;html=1;rounded=0;" parent="1" edge="1">
          <mxGeometry width="50" height="50" relative="1" as="geometry">
            <mxPoint x="682.5" y="689.3499999999999" as="sourcePoint" />
            <mxPoint x="902.5" y="689.3499999999999" as="targetPoint" />
          </mxGeometry>
        </mxCell>
        <mxCell id="PmFzKxTWgb2I8v0q9J5C-30" value="aggiungiModel(email, password, nome)" style="text;html=1;strokeColor=none;fillColor=none;align=center;verticalAlign=middle;whiteSpace=wrap;rounded=0;" parent="1" vertex="1">
          <mxGeometry x="683.13" y="660" width="217.5" height="30" as="geometry" />
        </mxCell>
        <mxCell id="PmFzKxTWgb2I8v0q9J5C-32" value="" style="html=1;verticalAlign=bottom;endArrow=open;dashed=1;endSize=8;curved=0;rounded=0;" parent="1" edge="1">
          <mxGeometry relative="1" as="geometry">
            <mxPoint x="902.5" y="830" as="sourcePoint" />
            <mxPoint x="172.5" y="830" as="targetPoint" />
          </mxGeometry>
        </mxCell>
        <mxCell id="PmFzKxTWgb2I8v0q9J5C-33" value="return" style="edgeLabel;html=1;align=center;verticalAlign=middle;resizable=0;points=[];" parent="PmFzKxTWgb2I8v0q9J5C-32" vertex="1" connectable="0">
          <mxGeometry x="-0.0322" y="-2" relative="1" as="geometry">
            <mxPoint x="-3" y="-8" as="offset" />
          </mxGeometry>
        </mxCell>
        <mxCell id="PmFzKxTWgb2I8v0q9J5C-34" value="Utente non registrato" style="shape=umlActor;verticalLabelPosition=bottom;verticalAlign=top;html=1;outlineConnect=0;" parent="1" vertex="1">
          <mxGeometry x="141.25" y="170" width="30" height="60" as="geometry" />
        </mxCell>
        <mxCell id="PmFzKxTWgb2I8v0q9J5C-35" value="" style="rounded=0;whiteSpace=wrap;html=1;rotation=90;" parent="1" vertex="1">
          <mxGeometry x="60" y="353.75" width="192.5" height="10" as="geometry" />
        </mxCell>
        <mxCell id="PmFzKxTWgb2I8v0q9J5C-36" value="" style="rounded=0;whiteSpace=wrap;html=1;rotation=90;" parent="1" vertex="1">
          <mxGeometry x="371.25" y="290" width="67.5" height="10" as="geometry" />
        </mxCell>
        <mxCell id="PmFzKxTWgb2I8v0q9J5C-37" value="" style="endArrow=classic;html=1;rounded=0;" parent="1" edge="1">
          <mxGeometry width="50" height="50" relative="1" as="geometry">
            <mxPoint x="171.25" y="290" as="sourcePoint" />
            <mxPoint x="391.25" y="290" as="targetPoint" />
          </mxGeometry>
        </mxCell>
        <mxCell id="PmFzKxTWgb2I8v0q9J5C-38" value="registrazioneView()" style="text;html=1;align=center;verticalAlign=middle;resizable=0;points=[];autosize=1;strokeColor=none;fillColor=none;" parent="1" vertex="1">
          <mxGeometry x="213.75" y="260" width="130" height="30" as="geometry" />
        </mxCell>
        <mxCell id="PmFzKxTWgb2I8v0q9J5C-39" value="" style="html=1;verticalAlign=bottom;endArrow=open;dashed=1;endSize=8;curved=0;rounded=0;" parent="1" edge="1">
          <mxGeometry relative="1" as="geometry">
            <mxPoint x="383.75" y="330" as="sourcePoint" />
            <mxPoint x="173.75" y="330" as="targetPoint" />
          </mxGeometry>
        </mxCell>
        <mxCell id="PmFzKxTWgb2I8v0q9J5C-40" value="return" style="edgeLabel;html=1;align=center;verticalAlign=middle;resizable=0;points=[];" parent="PmFzKxTWgb2I8v0q9J5C-39" vertex="1" connectable="0">
          <mxGeometry x="-0.0322" y="-2" relative="1" as="geometry">
            <mxPoint x="-3" y="-8" as="offset" />
          </mxGeometry>
        </mxCell>
        <mxCell id="PmFzKxTWgb2I8v0q9J5C-41" value="" style="endArrow=none;dashed=1;html=1;dashPattern=1 3;strokeWidth=2;rounded=0;" parent="1" edge="1">
          <mxGeometry width="50" height="50" relative="1" as="geometry">
            <mxPoint x="404.5999999999999" y="230" as="sourcePoint" />
            <mxPoint x="404.5999999999999" y="260" as="targetPoint" />
          </mxGeometry>
        </mxCell>
        <mxCell id="PmFzKxTWgb2I8v0q9J5C-42" value="" style="rounded=0;whiteSpace=wrap;html=1;rotation=90;" parent="1" vertex="1">
          <mxGeometry x="606.25" y="290" width="67.5" height="10" as="geometry" />
        </mxCell>
        <mxCell id="PmFzKxTWgb2I8v0q9J5C-43" value="" style="endArrow=none;dashed=1;html=1;dashPattern=1 3;strokeWidth=2;rounded=0;" parent="1" edge="1">
          <mxGeometry width="50" height="50" relative="1" as="geometry">
            <mxPoint x="639.5999999999999" y="230" as="sourcePoint" />
            <mxPoint x="639.5999999999999" y="260" as="targetPoint" />
          </mxGeometry>
        </mxCell>
        <mxCell id="PmFzKxTWgb2I8v0q9J5C-44" value="" style="rounded=0;whiteSpace=wrap;html=1;" parent="1" vertex="1">
          <mxGeometry x="361.25" y="190" width="103.75" height="30" as="geometry" />
        </mxCell>
        <mxCell id="PmFzKxTWgb2I8v0q9J5C-45" value="RegistrationView" style="text;html=1;strokeColor=none;fillColor=none;align=center;verticalAlign=middle;whiteSpace=wrap;rounded=0;" parent="1" vertex="1">
          <mxGeometry x="383.1300000000001" y="190" width="60" height="30" as="geometry" />
        </mxCell>
        <mxCell id="PmFzKxTWgb2I8v0q9J5C-46" value="" style="rounded=0;whiteSpace=wrap;html=1;" parent="1" vertex="1">
          <mxGeometry x="570" y="190" width="140" height="30" as="geometry" />
        </mxCell>
        <mxCell id="PmFzKxTWgb2I8v0q9J5C-47" value="RegistrationController" style="text;html=1;strokeColor=none;fillColor=none;align=center;verticalAlign=middle;whiteSpace=wrap;rounded=0;" parent="1" vertex="1">
          <mxGeometry x="610" y="190" width="60" height="30" as="geometry" />
        </mxCell>
        <mxCell id="PmFzKxTWgb2I8v0q9J5C-48" value="" style="endArrow=classic;html=1;rounded=0;entryX=1.052;entryY=0.993;entryDx=0;entryDy=0;entryPerimeter=0;" parent="1" target="PmFzKxTWgb2I8v0q9J5C-49" edge="1">
          <mxGeometry width="50" height="50" relative="1" as="geometry">
            <mxPoint x="418.75" y="289.3299999999999" as="sourcePoint" />
            <mxPoint x="638.75" y="289.3299999999999" as="targetPoint" />
          </mxGeometry>
        </mxCell>
        <mxCell id="PmFzKxTWgb2I8v0q9J5C-49" value="registrazioneController()" style="text;html=1;align=center;verticalAlign=middle;resizable=0;points=[];autosize=1;strokeColor=none;fillColor=none;" parent="1" vertex="1">
          <mxGeometry x="456.25" y="260" width="150" height="30" as="geometry" />
        </mxCell>
        <mxCell id="PmFzKxTWgb2I8v0q9J5C-50" value="" style="rounded=0;whiteSpace=wrap;html=1;rotation=90;" parent="1" vertex="1">
          <mxGeometry x="940.0000000000002" y="357.19000000000005" width="201.87" height="10" as="geometry" />
        </mxCell>
        <mxCell id="PmFzKxTWgb2I8v0q9J5C-51" value="" style="endArrow=none;dashed=1;html=1;dashPattern=1 3;strokeWidth=2;rounded=0;" parent="1" edge="1">
          <mxGeometry width="50" height="50" relative="1" as="geometry">
            <mxPoint x="1040.53" y="230" as="sourcePoint" />
            <mxPoint x="1040.53" y="260" as="targetPoint" />
          </mxGeometry>
        </mxCell>
        <mxCell id="PmFzKxTWgb2I8v0q9J5C-52" value="" style="rounded=0;whiteSpace=wrap;html=1;" parent="1" vertex="1">
          <mxGeometry x="970.9300000000001" y="190" width="140" height="30" as="geometry" />
        </mxCell>
        <mxCell id="PmFzKxTWgb2I8v0q9J5C-53" value="UtenteAutenticato" style="text;html=1;strokeColor=none;fillColor=none;align=center;verticalAlign=middle;whiteSpace=wrap;rounded=0;" parent="1" vertex="1">
          <mxGeometry x="1010.9300000000001" y="190" width="60" height="30" as="geometry" />
        </mxCell>
        <mxCell id="PmFzKxTWgb2I8v0q9J5C-54" value="" style="endArrow=classic;html=1;rounded=0;exitX=-0.06;exitY=1.02;exitDx=0;exitDy=0;exitPerimeter=0;" parent="1" source="PmFzKxTWgb2I8v0q9J5C-55" edge="1">
          <mxGeometry width="50" height="50" relative="1" as="geometry">
            <mxPoint x="810.47" y="289.3499999999999" as="sourcePoint" />
            <mxPoint x="1030.47" y="289.3499999999999" as="targetPoint" />
          </mxGeometry>
        </mxCell>
        <mxCell id="PmFzKxTWgb2I8v0q9J5C-55" value="istanziaUtente (email, password, nome)" style="text;html=1;strokeColor=none;fillColor=none;align=center;verticalAlign=middle;whiteSpace=wrap;rounded=0;" parent="1" vertex="1">
          <mxGeometry x="860" y="260" width="165.47" height="30" as="geometry" />
        </mxCell>
        <mxCell id="PmFzKxTWgb2I8v0q9J5C-56" value="" style="html=1;verticalAlign=bottom;endArrow=open;dashed=1;endSize=8;curved=0;rounded=0;" parent="1" edge="1">
          <mxGeometry relative="1" as="geometry">
            <mxPoint x="830" y="430" as="sourcePoint" />
            <mxPoint x="171.25" y="430" as="targetPoint" />
          </mxGeometry>
        </mxCell>
        <mxCell id="PmFzKxTWgb2I8v0q9J5C-57" value="return" style="edgeLabel;html=1;align=center;verticalAlign=middle;resizable=0;points=[];" parent="PmFzKxTWgb2I8v0q9J5C-56" vertex="1" connectable="0">
          <mxGeometry x="-0.0322" y="-2" relative="1" as="geometry">
            <mxPoint x="-3" y="-8" as="offset" />
          </mxGeometry>
        </mxCell>
        <mxCell id="PmFzKxTWgb2I8v0q9J5C-59" value="Utente autenticato" style="shape=umlActor;verticalLabelPosition=bottom;verticalAlign=top;html=1;outlineConnect=0;" parent="1" vertex="1">
          <mxGeometry x="142.5" y="940" width="30" height="60" as="geometry" />
        </mxCell>
        <mxCell id="PmFzKxTWgb2I8v0q9J5C-60" value="" style="rounded=0;whiteSpace=wrap;html=1;rotation=90;" parent="1" vertex="1">
          <mxGeometry x="60" y="1122.5" width="195" height="10" as="geometry" />
        </mxCell>
        <mxCell id="PmFzKxTWgb2I8v0q9J5C-61" value="" style="rounded=0;whiteSpace=wrap;html=1;rotation=90;" parent="1" vertex="1">
          <mxGeometry x="372.5" y="1060" width="67.5" height="10" as="geometry" />
        </mxCell>
        <mxCell id="PmFzKxTWgb2I8v0q9J5C-62" value="" style="endArrow=classic;html=1;rounded=0;" parent="1" edge="1">
          <mxGeometry width="50" height="50" relative="1" as="geometry">
            <mxPoint x="172.5" y="1060" as="sourcePoint" />
            <mxPoint x="392.5" y="1060" as="targetPoint" />
          </mxGeometry>
        </mxCell>
        <mxCell id="PmFzKxTWgb2I8v0q9J5C-63" value="iscrizioneTorneo()" style="text;html=1;align=center;verticalAlign=middle;resizable=0;points=[];autosize=1;strokeColor=none;fillColor=none;" parent="1" vertex="1">
          <mxGeometry x="220" y="1030" width="120" height="30" as="geometry" />
        </mxCell>
        <mxCell id="PmFzKxTWgb2I8v0q9J5C-64" value="" style="html=1;verticalAlign=bottom;endArrow=open;dashed=1;endSize=8;curved=0;rounded=0;" parent="1" edge="1">
          <mxGeometry relative="1" as="geometry">
            <mxPoint x="385" y="1100" as="sourcePoint" />
            <mxPoint x="175" y="1100" as="targetPoint" />
          </mxGeometry>
        </mxCell>
        <mxCell id="PmFzKxTWgb2I8v0q9J5C-65" value="return" style="edgeLabel;html=1;align=center;verticalAlign=middle;resizable=0;points=[];" parent="PmFzKxTWgb2I8v0q9J5C-64" vertex="1" connectable="0">
          <mxGeometry x="-0.0322" y="-2" relative="1" as="geometry">
            <mxPoint x="-3" y="-8" as="offset" />
          </mxGeometry>
        </mxCell>
        <mxCell id="PmFzKxTWgb2I8v0q9J5C-66" value="" style="endArrow=none;dashed=1;html=1;dashPattern=1 3;strokeWidth=2;rounded=0;" parent="1" edge="1">
          <mxGeometry width="50" height="50" relative="1" as="geometry">
            <mxPoint x="405.85" y="1000" as="sourcePoint" />
            <mxPoint x="405.85" y="1030" as="targetPoint" />
          </mxGeometry>
        </mxCell>
        <mxCell id="PmFzKxTWgb2I8v0q9J5C-67" value="" style="rounded=0;whiteSpace=wrap;html=1;rotation=90;" parent="1" vertex="1">
          <mxGeometry x="618.75" y="1060" width="67.5" height="10" as="geometry" />
        </mxCell>
        <mxCell id="PmFzKxTWgb2I8v0q9J5C-68" value="" style="endArrow=none;dashed=1;html=1;dashPattern=1 3;strokeWidth=2;rounded=0;" parent="1" edge="1">
          <mxGeometry width="50" height="50" relative="1" as="geometry">
            <mxPoint x="652.1" y="1000" as="sourcePoint" />
            <mxPoint x="652.1" y="1030" as="targetPoint" />
          </mxGeometry>
        </mxCell>
        <mxCell id="PmFzKxTWgb2I8v0q9J5C-69" value="" style="rounded=0;whiteSpace=wrap;html=1;" parent="1" vertex="1">
          <mxGeometry x="350" y="960" width="130" height="30" as="geometry" />
        </mxCell>
        <mxCell id="PmFzKxTWgb2I8v0q9J5C-70" value="IscrizioneTorneoView" style="text;html=1;strokeColor=none;fillColor=none;align=center;verticalAlign=middle;whiteSpace=wrap;rounded=0;" parent="1" vertex="1">
          <mxGeometry x="384.38" y="960" width="60" height="30" as="geometry" />
        </mxCell>
        <mxCell id="PmFzKxTWgb2I8v0q9J5C-71" value="" style="rounded=0;whiteSpace=wrap;html=1;" parent="1" vertex="1">
          <mxGeometry x="582.5" y="960" width="150" height="30" as="geometry" />
        </mxCell>
        <mxCell id="PmFzKxTWgb2I8v0q9J5C-72" value="IscrizioneTorneoController" style="text;html=1;strokeColor=none;fillColor=none;align=center;verticalAlign=middle;whiteSpace=wrap;rounded=0;" parent="1" vertex="1">
          <mxGeometry x="627.5" y="960" width="60" height="30" as="geometry" />
        </mxCell>
        <mxCell id="PmFzKxTWgb2I8v0q9J5C-81" value="" style="html=1;verticalAlign=bottom;endArrow=open;dashed=1;endSize=8;curved=0;rounded=0;" parent="1" edge="1">
          <mxGeometry relative="1" as="geometry">
            <mxPoint x="800" y="1200" as="sourcePoint" />
            <mxPoint x="172.5" y="1200" as="targetPoint" />
          </mxGeometry>
        </mxCell>
        <mxCell id="PmFzKxTWgb2I8v0q9J5C-82" value="return" style="edgeLabel;html=1;align=center;verticalAlign=middle;resizable=0;points=[];" parent="PmFzKxTWgb2I8v0q9J5C-81" vertex="1" connectable="0">
          <mxGeometry x="-0.0322" y="-2" relative="1" as="geometry">
            <mxPoint x="-3" y="-8" as="offset" />
          </mxGeometry>
        </mxCell>
        <mxCell id="PmFzKxTWgb2I8v0q9J5C-87" value="" style="endArrow=classic;html=1;rounded=0;" parent="1" edge="1">
          <mxGeometry width="50" height="50" relative="1" as="geometry">
            <mxPoint x="422.5" y="1059.33" as="sourcePoint" />
            <mxPoint x="642.5" y="1059.33" as="targetPoint" />
          </mxGeometry>
        </mxCell>
        <mxCell id="PmFzKxTWgb2I8v0q9J5C-91" value="iscrizioneTorneoController()" style="text;html=1;strokeColor=none;fillColor=none;align=center;verticalAlign=middle;whiteSpace=wrap;rounded=0;" parent="1" vertex="1">
          <mxGeometry x="492.97" y="1030" width="60" height="30" as="geometry" />
        </mxCell>
        <mxCell id="PmFzKxTWgb2I8v0q9J5C-124" value="" style="rounded=0;whiteSpace=wrap;html=1;rotation=90;" parent="1" vertex="1">
          <mxGeometry x="1354.0000000000002" y="1127.19" width="201.87" height="10" as="geometry" />
        </mxCell>
        <mxCell id="PmFzKxTWgb2I8v0q9J5C-125" value="" style="endArrow=none;dashed=1;html=1;dashPattern=1 3;strokeWidth=2;rounded=0;" parent="1" edge="1">
          <mxGeometry width="50" height="50" relative="1" as="geometry">
            <mxPoint x="1454.53" y="1000" as="sourcePoint" />
            <mxPoint x="1454.53" y="1030" as="targetPoint" />
          </mxGeometry>
        </mxCell>
        <mxCell id="PmFzKxTWgb2I8v0q9J5C-126" value="" style="rounded=0;whiteSpace=wrap;html=1;" parent="1" vertex="1">
          <mxGeometry x="1384.93" y="960" width="140" height="30" as="geometry" />
        </mxCell>
        <mxCell id="PmFzKxTWgb2I8v0q9J5C-127" value="DataBase" style="text;html=1;strokeColor=none;fillColor=none;align=center;verticalAlign=middle;whiteSpace=wrap;rounded=0;" parent="1" vertex="1">
          <mxGeometry x="1424.93" y="960" width="60" height="30" as="geometry" />
        </mxCell>
        <mxCell id="PmFzKxTWgb2I8v0q9J5C-169" value="Utente autenticato" style="shape=umlActor;verticalLabelPosition=bottom;verticalAlign=top;html=1;outlineConnect=0;" parent="1" vertex="1">
          <mxGeometry x="142.5" y="1290" width="30" height="60" as="geometry" />
        </mxCell>
        <mxCell id="PmFzKxTWgb2I8v0q9J5C-170" value="" style="rounded=0;whiteSpace=wrap;html=1;rotation=90;" parent="1" vertex="1">
          <mxGeometry x="60" y="1472.5" width="195" height="10" as="geometry" />
        </mxCell>
        <mxCell id="PmFzKxTWgb2I8v0q9J5C-171" value="" style="rounded=0;whiteSpace=wrap;html=1;rotation=90;" parent="1" vertex="1">
          <mxGeometry x="372.5" y="1410" width="67.5" height="10" as="geometry" />
        </mxCell>
        <mxCell id="PmFzKxTWgb2I8v0q9J5C-172" value="" style="endArrow=classic;html=1;rounded=0;" parent="1" edge="1">
          <mxGeometry width="50" height="50" relative="1" as="geometry">
            <mxPoint x="172.5" y="1410" as="sourcePoint" />
            <mxPoint x="392.5" y="1410" as="targetPoint" />
          </mxGeometry>
        </mxCell>
        <mxCell id="PmFzKxTWgb2I8v0q9J5C-173" value="creazioneTorneo()" style="text;html=1;align=center;verticalAlign=middle;resizable=0;points=[];autosize=1;strokeColor=none;fillColor=none;" parent="1" vertex="1">
          <mxGeometry x="220" y="1380" width="120" height="30" as="geometry" />
        </mxCell>
        <mxCell id="PmFzKxTWgb2I8v0q9J5C-174" value="" style="html=1;verticalAlign=bottom;endArrow=open;dashed=1;endSize=8;curved=0;rounded=0;" parent="1" edge="1">
          <mxGeometry relative="1" as="geometry">
            <mxPoint x="385" y="1450" as="sourcePoint" />
            <mxPoint x="175" y="1450" as="targetPoint" />
          </mxGeometry>
        </mxCell>
        <mxCell id="PmFzKxTWgb2I8v0q9J5C-175" value="return" style="edgeLabel;html=1;align=center;verticalAlign=middle;resizable=0;points=[];" parent="PmFzKxTWgb2I8v0q9J5C-174" vertex="1" connectable="0">
          <mxGeometry x="-0.0322" y="-2" relative="1" as="geometry">
            <mxPoint x="-3" y="-8" as="offset" />
          </mxGeometry>
        </mxCell>
        <mxCell id="PmFzKxTWgb2I8v0q9J5C-176" value="" style="endArrow=none;dashed=1;html=1;dashPattern=1 3;strokeWidth=2;rounded=0;" parent="1" edge="1">
          <mxGeometry width="50" height="50" relative="1" as="geometry">
            <mxPoint x="405.85" y="1350" as="sourcePoint" />
            <mxPoint x="405.85" y="1380" as="targetPoint" />
          </mxGeometry>
        </mxCell>
        <mxCell id="PmFzKxTWgb2I8v0q9J5C-177" value="" style="rounded=0;whiteSpace=wrap;html=1;rotation=90;" parent="1" vertex="1">
          <mxGeometry x="623.75" y="1406.4" width="67.5" height="10" as="geometry" />
        </mxCell>
        <mxCell id="PmFzKxTWgb2I8v0q9J5C-178" value="" style="endArrow=none;dashed=1;html=1;dashPattern=1 3;strokeWidth=2;rounded=0;" parent="1" edge="1">
          <mxGeometry width="50" height="50" relative="1" as="geometry">
            <mxPoint x="657.1" y="1346.4" as="sourcePoint" />
            <mxPoint x="657.1" y="1376.4" as="targetPoint" />
          </mxGeometry>
        </mxCell>
        <mxCell id="PmFzKxTWgb2I8v0q9J5C-179" value="" style="rounded=0;whiteSpace=wrap;html=1;" parent="1" vertex="1">
          <mxGeometry x="362.5" y="1310" width="103.75" height="30" as="geometry" />
        </mxCell>
        <mxCell id="PmFzKxTWgb2I8v0q9J5C-180" value="CreaTorneoView" style="text;html=1;strokeColor=none;fillColor=none;align=center;verticalAlign=middle;whiteSpace=wrap;rounded=0;" parent="1" vertex="1">
          <mxGeometry x="384.38" y="1310" width="60" height="30" as="geometry" />
        </mxCell>
        <mxCell id="PmFzKxTWgb2I8v0q9J5C-181" value="" style="rounded=0;whiteSpace=wrap;html=1;" parent="1" vertex="1">
          <mxGeometry x="587.5" y="1306.4" width="140" height="30" as="geometry" />
        </mxCell>
        <mxCell id="PmFzKxTWgb2I8v0q9J5C-182" value="CreaTorneoController" style="text;html=1;strokeColor=none;fillColor=none;align=center;verticalAlign=middle;whiteSpace=wrap;rounded=0;" parent="1" vertex="1">
          <mxGeometry x="627.5" y="1306.4" width="60" height="30" as="geometry" />
        </mxCell>
        <mxCell id="PmFzKxTWgb2I8v0q9J5C-183" value="" style="endArrow=classic;html=1;rounded=0;" parent="1" edge="1">
          <mxGeometry width="50" height="50" relative="1" as="geometry">
            <mxPoint x="420" y="1409.33" as="sourcePoint" />
            <mxPoint x="640" y="1409.33" as="targetPoint" />
          </mxGeometry>
        </mxCell>
        <mxCell id="PmFzKxTWgb2I8v0q9J5C-184" value="creazioneTorneoController()" style="text;html=1;align=center;verticalAlign=middle;resizable=0;points=[];autosize=1;strokeColor=none;fillColor=none;" parent="1" vertex="1">
          <mxGeometry x="447.5" y="1380" width="170" height="30" as="geometry" />
        </mxCell>
        <mxCell id="PmFzKxTWgb2I8v0q9J5C-185" value="" style="rounded=0;whiteSpace=wrap;html=1;rotation=90;" parent="1" vertex="1">
          <mxGeometry x="830.0000000000002" y="1470.0000000000002" width="201.87" height="10" as="geometry" />
        </mxCell>
        <mxCell id="PmFzKxTWgb2I8v0q9J5C-186" value="" style="endArrow=none;dashed=1;html=1;dashPattern=1 3;strokeWidth=2;rounded=0;" parent="1" edge="1">
          <mxGeometry width="50" height="50" relative="1" as="geometry">
            <mxPoint x="930.53" y="1342.8100000000002" as="sourcePoint" />
            <mxPoint x="930.53" y="1372.8100000000002" as="targetPoint" />
          </mxGeometry>
        </mxCell>
        <mxCell id="PmFzKxTWgb2I8v0q9J5C-187" value="" style="rounded=0;whiteSpace=wrap;html=1;" parent="1" vertex="1">
          <mxGeometry x="860.9300000000001" y="1302.8100000000002" width="140" height="30" as="geometry" />
        </mxCell>
        <mxCell id="PmFzKxTWgb2I8v0q9J5C-188" value="UtenteAutenticato" style="text;html=1;strokeColor=none;fillColor=none;align=center;verticalAlign=middle;whiteSpace=wrap;rounded=0;" parent="1" vertex="1">
          <mxGeometry x="900.9300000000001" y="1302.8100000000002" width="60" height="30" as="geometry" />
        </mxCell>
        <mxCell id="PmFzKxTWgb2I8v0q9J5C-189" value="" style="endArrow=classic;html=1;rounded=0;" parent="1" edge="1">
          <mxGeometry width="50" height="50" relative="1" as="geometry">
            <mxPoint x="677.5" y="1405.75" as="sourcePoint" />
            <mxPoint x="910" y="1405" as="targetPoint" />
          </mxGeometry>
        </mxCell>
        <mxCell id="PmFzKxTWgb2I8v0q9J5C-191" value="" style="html=1;verticalAlign=bottom;endArrow=open;dashed=1;endSize=8;curved=0;rounded=0;" parent="1" edge="1">
          <mxGeometry relative="1" as="geometry">
            <mxPoint x="900" y="1560" as="sourcePoint" />
            <mxPoint x="172.5" y="1560" as="targetPoint" />
          </mxGeometry>
        </mxCell>
        <mxCell id="PmFzKxTWgb2I8v0q9J5C-192" value="return" style="edgeLabel;html=1;align=center;verticalAlign=middle;resizable=0;points=[];" parent="PmFzKxTWgb2I8v0q9J5C-191" vertex="1" connectable="0">
          <mxGeometry x="-0.0322" y="-2" relative="1" as="geometry">
            <mxPoint x="-3" y="-8" as="offset" />
          </mxGeometry>
        </mxCell>
        <mxCell id="PmFzKxTWgb2I8v0q9J5C-201" value="" style="rounded=0;whiteSpace=wrap;html=1;rotation=90;" parent="1" vertex="1">
          <mxGeometry x="1210.0000000000002" y="1470.0000000000002" width="201.87" height="10" as="geometry" />
        </mxCell>
        <mxCell id="PmFzKxTWgb2I8v0q9J5C-202" value="" style="endArrow=none;dashed=1;html=1;dashPattern=1 3;strokeWidth=2;rounded=0;" parent="1" edge="1">
          <mxGeometry width="50" height="50" relative="1" as="geometry">
            <mxPoint x="1310.53" y="1342.8100000000002" as="sourcePoint" />
            <mxPoint x="1310.53" y="1372.8100000000002" as="targetPoint" />
          </mxGeometry>
        </mxCell>
        <mxCell id="PmFzKxTWgb2I8v0q9J5C-203" value="" style="rounded=0;whiteSpace=wrap;html=1;" parent="1" vertex="1">
          <mxGeometry x="1240.93" y="1302.8100000000002" width="140" height="30" as="geometry" />
        </mxCell>
        <mxCell id="PmFzKxTWgb2I8v0q9J5C-204" value="DataBase" style="text;html=1;strokeColor=none;fillColor=none;align=center;verticalAlign=middle;whiteSpace=wrap;rounded=0;" parent="1" vertex="1">
          <mxGeometry x="1280.93" y="1302.8100000000002" width="60" height="30" as="geometry" />
        </mxCell>
        <mxCell id="PmFzKxTWgb2I8v0q9J5C-205" value="" style="endArrow=classic;html=1;rounded=0;" parent="1" edge="1">
          <mxGeometry width="50" height="50" relative="1" as="geometry">
            <mxPoint x="950" y="1401.98" as="sourcePoint" />
            <mxPoint x="1290" y="1400" as="targetPoint" />
          </mxGeometry>
        </mxCell>
        <mxCell id="PmFzKxTWgb2I8v0q9J5C-206" value="creazioneTorneo(nomeTorneo, gioco, dataInizio, dataFine, visibilità)" style="text;html=1;strokeColor=none;fillColor=none;align=center;verticalAlign=middle;whiteSpace=wrap;rounded=0;" parent="1" vertex="1">
          <mxGeometry x="938" y="1368" width="370" height="30" as="geometry" />
        </mxCell>
        <mxCell id="dA8aLjZPVSyw3G796LqZ-2" value="" style="rounded=0;whiteSpace=wrap;html=1;rotation=90;" parent="1" vertex="1">
          <mxGeometry x="1163.6800000000003" y="357.19000000000005" width="201.87" height="10" as="geometry" />
        </mxCell>
        <mxCell id="dA8aLjZPVSyw3G796LqZ-4" value="" style="rounded=0;whiteSpace=wrap;html=1;" parent="1" vertex="1">
          <mxGeometry x="1202.1200000000001" y="190" width="140" height="30" as="geometry" />
        </mxCell>
        <mxCell id="dA8aLjZPVSyw3G796LqZ-5" value="UtenteDAO" style="text;html=1;strokeColor=none;fillColor=none;align=center;verticalAlign=middle;whiteSpace=wrap;rounded=0;" parent="1" vertex="1">
          <mxGeometry x="1239.1200000000001" y="190" width="60" height="30" as="geometry" />
        </mxCell>
        <mxCell id="dA8aLjZPVSyw3G796LqZ-6" value="" style="endArrow=none;dashed=1;html=1;dashPattern=1 3;strokeWidth=2;rounded=0;" parent="1" edge="1">
          <mxGeometry width="50" height="50" relative="1" as="geometry">
            <mxPoint x="1264.68" y="256" as="sourcePoint" />
            <mxPoint x="1264.68" y="226" as="targetPoint" />
          </mxGeometry>
        </mxCell>
        <mxCell id="dA8aLjZPVSyw3G796LqZ-7" value="insertUtente(UtenteAutenticato)" style="text;html=1;strokeColor=none;fillColor=none;align=center;verticalAlign=middle;whiteSpace=wrap;rounded=0;" parent="1" vertex="1">
          <mxGeometry x="1282.93" y="260" width="208.75" height="30" as="geometry" />
        </mxCell>
        <mxCell id="dA8aLjZPVSyw3G796LqZ-8" value="" style="endArrow=classic;html=1;rounded=0;entryX=1;entryY=1;entryDx=0;entryDy=0;" parent="1" target="dA8aLjZPVSyw3G796LqZ-7" edge="1">
          <mxGeometry width="50" height="50" relative="1" as="geometry">
            <mxPoint x="1279.68" y="290" as="sourcePoint" />
            <mxPoint x="1189.68" y="290" as="targetPoint" />
          </mxGeometry>
        </mxCell>
        <mxCell id="dA8aLjZPVSyw3G796LqZ-9" value="" style="rounded=0;whiteSpace=wrap;html=1;" parent="1" vertex="1">
          <mxGeometry x="1440.6200000000001" y="190" width="140" height="30" as="geometry" />
        </mxCell>
        <mxCell id="dA8aLjZPVSyw3G796LqZ-10" value="DataBase" style="text;html=1;strokeColor=none;fillColor=none;align=center;verticalAlign=middle;whiteSpace=wrap;rounded=0;" parent="1" vertex="1">
          <mxGeometry x="1480.6200000000001" y="190" width="60" height="30" as="geometry" />
        </mxCell>
        <mxCell id="dA8aLjZPVSyw3G796LqZ-11" value="" style="rounded=0;whiteSpace=wrap;html=1;rotation=90;" parent="1" vertex="1">
          <mxGeometry x="1409.6800000000003" y="363.75000000000006" width="201.87" height="10" as="geometry" />
        </mxCell>
        <mxCell id="dA8aLjZPVSyw3G796LqZ-14" value="" style="endArrow=none;dashed=1;html=1;dashPattern=1 3;strokeWidth=2;rounded=0;entryX=0.5;entryY=1;entryDx=0;entryDy=0;" parent="1" target="dA8aLjZPVSyw3G796LqZ-10" edge="1">
          <mxGeometry width="50" height="50" relative="1" as="geometry">
            <mxPoint x="1509.69" y="255" as="sourcePoint" />
            <mxPoint x="1234.69" y="241" as="targetPoint" />
          </mxGeometry>
        </mxCell>
        <mxCell id="_xcE8ZJ6tuB9mQ8rcjDb-1" value="registrazioneCredenziali(id, username, email, password)" style="text;whiteSpace=wrap;" parent="1" vertex="1">
          <mxGeometry x="1072.18" y="230" width="188" height="40" as="geometry" />
        </mxCell>
        <mxCell id="_xcE8ZJ6tuB9mQ8rcjDb-2" value="" style="endArrow=classic;html=1;rounded=0;" parent="1" edge="1">
          <mxGeometry width="50" height="50" relative="1" as="geometry">
            <mxPoint x="1059.68" y="289" as="sourcePoint" />
            <mxPoint x="1252.1200000000001" y="289" as="targetPoint" />
          </mxGeometry>
        </mxCell>
        <mxCell id="_xcE8ZJ6tuB9mQ8rcjDb-3" value="" style="rounded=0;whiteSpace=wrap;html=1;rotation=90;" parent="1" vertex="1">
          <mxGeometry x="743.13" y="353.13" width="193.75" height="10" as="geometry" />
        </mxCell>
        <mxCell id="_xcE8ZJ6tuB9mQ8rcjDb-4" value="" style="endArrow=none;dashed=1;html=1;dashPattern=1 3;strokeWidth=2;rounded=0;" parent="1" edge="1">
          <mxGeometry width="50" height="50" relative="1" as="geometry">
            <mxPoint x="839.5999999999999" y="230" as="sourcePoint" />
            <mxPoint x="839.5999999999999" y="260" as="targetPoint" />
          </mxGeometry>
        </mxCell>
        <mxCell id="_xcE8ZJ6tuB9mQ8rcjDb-5" value="" style="rounded=0;whiteSpace=wrap;html=1;" parent="1" vertex="1">
          <mxGeometry x="770" y="190" width="140" height="30" as="geometry" />
        </mxCell>
        <mxCell id="_xcE8ZJ6tuB9mQ8rcjDb-6" value="RegistrationModel" style="text;html=1;strokeColor=none;fillColor=none;align=center;verticalAlign=middle;whiteSpace=wrap;rounded=0;" parent="1" vertex="1">
          <mxGeometry x="810" y="190" width="60" height="30" as="geometry" />
        </mxCell>
        <mxCell id="_xcE8ZJ6tuB9mQ8rcjDb-7" value="" style="endArrow=classic;html=1;rounded=0;" parent="1" edge="1">
          <mxGeometry width="50" height="50" relative="1" as="geometry">
            <mxPoint x="650" y="290" as="sourcePoint" />
            <mxPoint x="827" y="290" as="targetPoint" />
          </mxGeometry>
        </mxCell>
        <mxCell id="_xcE8ZJ6tuB9mQ8rcjDb-8" value="&lt;span style=&quot;color: rgb(0, 0, 0); font-family: Helvetica; font-size: 12px; font-style: normal; font-variant-ligatures: normal; font-variant-caps: normal; font-weight: 400; letter-spacing: normal; orphans: 2; text-align: center; text-indent: 0px; text-transform: none; widows: 2; word-spacing: 0px; -webkit-text-stroke-width: 0px; background-color: rgb(251, 251, 251); text-decoration-thickness: initial; text-decoration-style: initial; text-decoration-color: initial; float: none; display: inline !important;&quot;&gt;registrazioneModel()&lt;/span&gt;" style="text;whiteSpace=wrap;html=1;" parent="1" vertex="1">
          <mxGeometry x="683.13" y="260" width="160" height="40" as="geometry" />
        </mxCell>
        <mxCell id="Qi0Wa9hxT18hAOxOMV2e-1" value="" style="rounded=0;whiteSpace=wrap;html=1;rotation=90;" parent="1" vertex="1">
          <mxGeometry x="983.6800000000003" y="1127.19" width="201.87" height="10" as="geometry" />
        </mxCell>
        <mxCell id="Qi0Wa9hxT18hAOxOMV2e-2" value="" style="rounded=0;whiteSpace=wrap;html=1;" parent="1" vertex="1">
          <mxGeometry x="1022.1200000000001" y="960" width="140" height="30" as="geometry" />
        </mxCell>
        <mxCell id="Qi0Wa9hxT18hAOxOMV2e-3" value="TorneoDAO" style="text;html=1;strokeColor=none;fillColor=none;align=center;verticalAlign=middle;whiteSpace=wrap;rounded=0;" parent="1" vertex="1">
          <mxGeometry x="1059.1200000000001" y="960" width="60" height="30" as="geometry" />
        </mxCell>
        <mxCell id="Qi0Wa9hxT18hAOxOMV2e-4" value="" style="endArrow=none;dashed=1;html=1;dashPattern=1 3;strokeWidth=2;rounded=0;" parent="1" edge="1">
          <mxGeometry width="50" height="50" relative="1" as="geometry">
            <mxPoint x="1084.68" y="1026" as="sourcePoint" />
            <mxPoint x="1084.68" y="996" as="targetPoint" />
          </mxGeometry>
        </mxCell>
        <mxCell id="Qi0Wa9hxT18hAOxOMV2e-8" value="&lt;span style=&quot;color: rgb(0, 0, 0); font-family: Helvetica; font-size: 12px; font-style: normal; font-variant-ligatures: normal; font-variant-caps: normal; font-weight: 400; letter-spacing: normal; orphans: 2; text-align: center; text-indent: 0px; text-transform: none; widows: 2; word-spacing: 0px; -webkit-text-stroke-width: 0px; background-color: rgb(251, 251, 251); text-decoration-thickness: initial; text-decoration-style: initial; text-decoration-color: initial; float: none; display: inline !important;&quot;&gt;insertPartecipante(emailUtente, nomeTorneo, punteggio)&lt;/span&gt;" style="text;whiteSpace=wrap;html=1;" parent="1" vertex="1">
          <mxGeometry x="1113" y="1021" width="340" height="40" as="geometry" />
        </mxCell>
        <mxCell id="Qi0Wa9hxT18hAOxOMV2e-9" value="" style="endArrow=classic;html=1;rounded=0;" parent="1" edge="1">
          <mxGeometry width="50" height="50" relative="1" as="geometry">
            <mxPoint x="1114" y="1060" as="sourcePoint" />
            <mxPoint x="1424" y="1060" as="targetPoint" />
          </mxGeometry>
        </mxCell>
        <mxCell id="Qi0Wa9hxT18hAOxOMV2e-10" value="" style="endArrow=classic;html=1;rounded=0;" parent="1" edge="1">
          <mxGeometry width="50" height="50" relative="1" as="geometry">
            <mxPoint x="874" y="1060" as="sourcePoint" />
            <mxPoint x="1064" y="1060" as="targetPoint" />
          </mxGeometry>
        </mxCell>
        <mxCell id="Qi0Wa9hxT18hAOxOMV2e-11" value="" style="rounded=0;whiteSpace=wrap;html=1;rotation=90;" parent="1" vertex="1">
          <mxGeometry x="744.0000000000002" y="1127.19" width="201.87" height="10" as="geometry" />
        </mxCell>
        <mxCell id="Qi0Wa9hxT18hAOxOMV2e-12" value="" style="endArrow=none;dashed=1;html=1;dashPattern=1 3;strokeWidth=2;rounded=0;" parent="1" edge="1">
          <mxGeometry width="50" height="50" relative="1" as="geometry">
            <mxPoint x="844.53" y="1000" as="sourcePoint" />
            <mxPoint x="844.53" y="1030" as="targetPoint" />
          </mxGeometry>
        </mxCell>
        <mxCell id="Qi0Wa9hxT18hAOxOMV2e-13" value="" style="rounded=0;whiteSpace=wrap;html=1;" parent="1" vertex="1">
          <mxGeometry x="774.9300000000001" y="960" width="140" height="30" as="geometry" />
        </mxCell>
        <mxCell id="Qi0Wa9hxT18hAOxOMV2e-14" value="UtenteAutenticato" style="text;html=1;strokeColor=none;fillColor=none;align=center;verticalAlign=middle;whiteSpace=wrap;rounded=0;" parent="1" vertex="1">
          <mxGeometry x="814.9300000000001" y="960" width="60" height="30" as="geometry" />
        </mxCell>
        <mxCell id="Qi0Wa9hxT18hAOxOMV2e-15" value="" style="endArrow=classic;html=1;rounded=0;" parent="1" edge="1">
          <mxGeometry width="50" height="50" relative="1" as="geometry">
            <mxPoint x="688" y="1060" as="sourcePoint" />
            <mxPoint x="829.8699999999999" y="1059" as="targetPoint" />
          </mxGeometry>
        </mxCell>
        <mxCell id="Qi0Wa9hxT18hAOxOMV2e-16" value="ListenerIscrizione" style="text;html=1;align=center;verticalAlign=middle;resizable=0;points=[];autosize=1;strokeColor=none;fillColor=none;" parent="1" vertex="1">
          <mxGeometry x="694" y="1024" width="120" height="30" as="geometry" />
        </mxCell>
        <mxCell id="Qi0Wa9hxT18hAOxOMV2e-17" value="iscrizioneTorneo(email, nomeTorneo)" style="text;html=1;align=center;verticalAlign=middle;resizable=0;points=[];autosize=1;strokeColor=none;fillColor=none;" parent="1" vertex="1">
          <mxGeometry x="852" y="1020" width="220" height="30" as="geometry" />
        </mxCell>
        <mxCell id="Qi0Wa9hxT18hAOxOMV2e-18" value="" style="endArrow=classic;html=1;rounded=0;" parent="1" edge="1">
          <mxGeometry width="50" height="50" relative="1" as="geometry">
            <mxPoint x="1570.93" y="739.3299999999999" as="sourcePoint" />
            <mxPoint x="1790.93" y="739.3299999999999" as="targetPoint" />
          </mxGeometry>
        </mxCell>
        <mxCell id="Qi0Wa9hxT18hAOxOMV2e-19" value="accessoTorneo()" style="text;html=1;align=center;verticalAlign=middle;resizable=0;points=[];autosize=1;strokeColor=none;fillColor=none;" parent="1" vertex="1">
          <mxGeometry x="1628.43" y="710" width="110" height="30" as="geometry" />
        </mxCell>
        <mxCell id="Qi0Wa9hxT18hAOxOMV2e-20" value="" style="rounded=0;whiteSpace=wrap;html=1;rotation=90;" parent="1" vertex="1">
          <mxGeometry x="1777.18" y="740" width="67.5" height="10" as="geometry" />
        </mxCell>
        <mxCell id="Qi0Wa9hxT18hAOxOMV2e-21" value="" style="endArrow=none;dashed=1;html=1;dashPattern=1 3;strokeWidth=2;rounded=0;" parent="1" edge="1">
          <mxGeometry width="50" height="50" relative="1" as="geometry">
            <mxPoint x="1810.53" y="680" as="sourcePoint" />
            <mxPoint x="1810.53" y="710" as="targetPoint" />
          </mxGeometry>
        </mxCell>
        <mxCell id="Qi0Wa9hxT18hAOxOMV2e-22" value="" style="rounded=0;whiteSpace=wrap;html=1;" parent="1" vertex="1">
          <mxGeometry x="1767.18" y="640" width="103.75" height="30" as="geometry" />
        </mxCell>
        <mxCell id="Qi0Wa9hxT18hAOxOMV2e-23" value="RTorneoView1" style="text;html=1;strokeColor=none;fillColor=none;align=center;verticalAlign=middle;whiteSpace=wrap;rounded=0;" parent="1" vertex="1">
          <mxGeometry x="1790.93" y="640" width="60" height="30" as="geometry" />
        </mxCell>
        <mxCell id="Qi0Wa9hxT18hAOxOMV2e-24" value="" style="html=1;verticalAlign=bottom;endArrow=open;dashed=1;endSize=8;curved=0;rounded=0;" parent="1" edge="1">
          <mxGeometry relative="1" as="geometry">
            <mxPoint x="1790.93" y="780" as="sourcePoint" />
            <mxPoint x="1570.93" y="780" as="targetPoint" />
          </mxGeometry>
        </mxCell>
        <mxCell id="Qi0Wa9hxT18hAOxOMV2e-25" value="return" style="edgeLabel;html=1;align=center;verticalAlign=middle;resizable=0;points=[];" parent="Qi0Wa9hxT18hAOxOMV2e-24" vertex="1" connectable="0">
          <mxGeometry x="-0.0322" y="-2" relative="1" as="geometry">
            <mxPoint x="-3" y="-8" as="offset" />
          </mxGeometry>
        </mxCell>
        <mxCell id="M7Dh-_FwcG7-ZmyJeiV2-1" value="ListenerCreazione" style="text;html=1;align=center;verticalAlign=middle;resizable=0;points=[];autosize=1;strokeColor=none;fillColor=none;" vertex="1" parent="1">
          <mxGeometry x="729" y="1368" width="120" height="30" as="geometry" />
        </mxCell>
      </root>
    </mxGraphModel>
  </diagram>
</mxfile>
